<svg width="223" height="223" viewBox="0 0 223 223" fill="none" xmlns="http://www.w3.org/2000/svg">
<mask id="mask0" mask-type="alpha" maskUnits="userSpaceOnUse" x="0" y="0" width="223" height="223">
<circle cx="111.5" cy="111.5" r="111.5" fill="#0094FF"/>
</mask>
<g mask="url(#mask0)">
<circle cx="111.5" cy="111.5" r="111.5" fill="#0094FF"/>
<path d="M27.5 41.5L25 41C25 39.6667 25.2 36.8 26 36C27 35 28.5 32 29 31.5L33.5 27H38.5H40.5L44 28.5L48 30L52 32L56.5 34.5L60.5 37L62.5 38.5L60.5 40L57.5 42.5L53 43.5L47.5 42.5L44 41.5L40.5 41L38 40C37.6667 39.5 37 38.1 37 36.5C37 34.9 35.3333 33.8333 34.5 33.5L33.5 36V38.5L31.5 41L27.5 41.5Z" fill="#086500"/>
<path d="M61.5 206L59 209.5L56 213H49L41.5 210.5L33.5 203.5L30 188V186.5V182.5L29 178L26.5 173.5L23.5 169.5L21.5 167C20.8333 165 19.4 160.8 19 160C18.5 159 19 157.5 19 156.5C19 155.7 19.3333 154.5 19.5 154L21 149.5C21.6667 148.333 23 145.9 23 145.5C23 145 24 144 24 143.5C24 143 25.5 141 26.5 140C27.3 139.2 26.8333 138 26.5 137.5V134.5L24.5 135.5H21.5H19.5C18.8333 135 17.5 133.8 17.5 133C17.5 132.2 16.5 131.333 16 131L13.5 126.5L11.5 125L8.5 123L5.5 121L0 119L-3.5 86L18 51L19 51.5L22.5 53H26.5L29 52L32.5 51L33.5 48L36 44L37.5 41H39L41.5 41.5L45 42.5L48.5 44L51.5 44.5L54 46L57 48L59.5 49.5L61.5 51.5L64.5 54L67 56L69 58L71.5 62V64.5L67 66H63.5L61.5 64.5L59.5 60.5H58L53.5 62L49 63.5L50.5 64.5H53.5L57.5 66L59 68.5L58 72L56.5 74H53.5L51 73H47H45L43 75.5L40.5 77.5L38.5 80L36 82.5L33.5 86.5L31 89.5L27.5 95L25.5 97.5L24 101V102.5V106L25.5 108.5L27.5 111L26.5 112H23L22 111L19.5 108.5L18 106L16.5 102.5L15 98.5L13.5 96.5L11 95L8 94L5 95L3.5 96.5L1.5 97.5V101V105L3.5 108L7 109.5L10 108H13L14.5 109.5L13.5 111L13 114L15 115.5L17.5 119L19.5 122L20 125.5L23 128L25.5 129L30 127L32.5 124.5L36 123.5L37.5 124.5H40.5L44 126.5L47 129L51 131L57.5 134.5L61.5 136L64.5 139L67 142.5L70.5 146L72.5 148.5L76.5 150.5C77.3 150.9 79.5 151.667 80.5 152L84 154L87.5 157.5L89.5 160L90 163.5L87.5 166.5L85 168.5L83.5 172L82.5 175.5V179L81.5 182.5L80.5 185L79 187.5L76.5 190L73.5 192L69.5 193.5L67 195.5L65.5 198L63.5 201.5L61.5 206Z" fill="#086500"/>
<path d="M217.5 120.5L222.5 118.5H223L224 113.5V111.5C224 111 223.5 108 224 106.5C224.4 105.3 223.833 102.667 223.5 101.5L222 101H220.5L217.5 100L215.5 99L214.5 97.5V95L216 95.5L219.5 97L221.5 98.5L223.5 97.5C225 96.8333 228.1 95.4 228.5 95C229 94.5 226.5 86 226 85C225.5 84 222 76.5 222 76C222 75.6 218.333 69.8333 216.5 67L212 60L208.5 52.5L199.5 42L194.5 36L187 30H185.5H182.5L177 31L172 33L167.5 35L162 38L156 41.5L155 44.5L156 47C156.667 47.5 158.2 48.6 159 49L161 50L163.5 51H166L169 50L170 48.5C170.167 47.3333 170.5 44.9 170.5 44.5V40.5C170.5 39.7 171.5 39.1667 172 39H173.5V41.5L174.5 43.5L177 46L180 47L177 48.5L175 50L173.5 53C172.167 53.8333 169.4 55.6 169 56C168.6 56.4 166.833 56.5 166 56.5L164.5 56C164 55.1667 162.9 53.3 162.5 52.5C162.1 51.7 160.667 51.1667 160 51H158L156 52.5L154.5 54.5L151 56.5H150C149.333 56.3333 147.9 56 147.5 56C147.1 56 146.333 55 146 54.5C145.5 53.5 144.3 51.4 143.5 51C142.7 50.6 141.167 49.5 140.5 49L139 48.5H137L136 51L137.5 53.5L138.5 57L142 60.5L139.5 62L138 63V65L138.5 66.5L138 70L136 71.5L133 73.5L131 75L131.5 78.5V81L134.5 82.5H138.5L140.5 81L143 78.5L144.5 76.5L148.5 73.5L152 72.5L155.5 73L159 74.5L163 77.5L167.5 81.5V80.5L168.5 77.5L170.5 76L172.5 77.5L175 81.5L178 85L180 83.5L182 82L183.5 82.5L185.5 83.5L190.5 86L193 87.5L192.5 88.5V92L194.5 95.5L196.5 99L199.5 104L201.5 108L204 112.5L206.5 117L209.5 120.5L212.5 122L217.5 120.5Z" fill="#086500"/>
<path d="M169 203L171 206L177 203L191 190.5L206 171.5V169.5V166L205 163.5V160.5V157.5L207.5 153L208.5 150.5L210.5 147.5L212 145L213.5 142.5L216 139L217 136L219 133V128.5L216 127H213.5L210.5 126L208.5 122.5L206 118.5L204 116.5L202 112L200 108L197.5 104.5L196 103L194.5 100.5L192 99.5V96.5L190.5 93L189.5 91L187 90.5L183.5 89.5L180 88.5L177 89.5L172.5 90.5H169.5L166 88.5H165L162.5 87.5L160 86.5C159.667 86.1667 159 85.2 159 84C159 82.8 158.333 82.5 158 82.5L154 81.5H150H147.5L144 82.5L140.5 84.5H136.5L134.5 85.5L133 87.5L131 91L129 94L126.5 98.5L125.5 100.5L124 103L122.5 106L121 109L120.5 112L119.5 115.5V118.5L120.5 122.5L122.5 126L124.5 131L127 135L130 138L133 139.5H134.5H136.5C137.333 139.333 139.1 139 139.5 139C139.9 139 141.667 138.333 142.5 138C143.167 137.667 144.6 136.8 145 136C145.4 135.2 146.833 135.667 147.5 136H150L151.5 137L153 138L155.5 139L158 139.5V142.5V146L158.5 149.5L159 153L160 155.5L161 158.5L162 162.5L161.5 165L161 168.5L160 173.5L158.5 177.5V181V184.5L160 190L162.5 194.5L166 199L169 203Z" fill="#086500"/>
</g>
</svg>
