<svg width="45" height="45" viewBox="0 0 45 45" fill="none" xmlns="http://www.w3.org/2000/svg">
<path d="M22.5 0.46875C10.3336 0.46875 0.46875 10.5894 0.46875 23.0606C0.46875 33.0435 6.78306 41.5019 15.5366 44.4919C15.6593 44.5186 15.7847 44.5318 15.9103 44.5312C16.7266 44.5312 17.0414 43.9313 17.0414 43.41C17.0414 42.8691 17.0217 41.4528 17.0119 39.5644C16.2831 39.7352 15.5376 39.8243 14.7891 39.8299C10.55 39.8299 9.58615 36.5351 9.58615 36.5351C8.58294 33.9287 7.13714 33.2304 7.13714 33.2304C5.21924 31.8829 7.1273 31.8436 7.27483 31.8436H7.28467C9.49763 32.0403 10.6582 34.1844 10.6582 34.1844C11.7598 36.1122 13.2351 36.6531 14.553 36.6531C15.4245 36.6357 16.2824 36.4346 17.0709 36.063C17.2676 34.6073 17.838 33.614 18.4675 33.0435C13.5793 32.4731 8.43541 30.5355 8.43541 21.8804C8.43541 19.4117 9.29109 17.3954 10.6975 15.8218C10.4713 15.2513 9.71401 12.9498 10.9139 9.84186C11.0749 9.80335 11.2403 9.78681 11.4057 9.79269C12.2024 9.79269 14.0022 10.0976 16.9725 12.163C20.5816 11.1532 24.3987 11.1532 28.0078 12.163C30.9781 10.0976 32.778 9.79269 33.5746 9.79269C33.74 9.78681 33.9055 9.80335 34.0664 9.84186C35.2663 12.9498 34.509 15.2513 34.2828 15.8218C35.6892 17.4053 36.5449 19.4215 36.5449 21.8804C36.5449 30.5552 31.3912 32.4632 26.4833 33.0238C27.2702 33.7222 27.9783 35.0991 27.9783 37.2039C27.9783 40.2233 27.9488 42.6625 27.9488 43.4002C27.9488 43.9313 28.2537 44.5312 29.07 44.5312C29.2022 44.5318 29.334 44.5186 29.4634 44.4919C38.2268 41.5019 44.5313 33.0337 44.5313 23.0606C44.5313 10.5894 34.6664 0.46875 22.5 0.46875Z" fill="#F2F2F2"/>
</svg>